<svg width="100" height="100" viewBox="0 0 100 100" fill="none" xmlns="http://www.w3.org/2000/svg">
<path fill-rule="evenodd" clip-rule="evenodd" d="M49.8471 0C22.3242 0 0 22.9466 0 51.237C0 73.8693 14.3731 93.0439 33.945 99.9593C36.3914 100.274 37.3089 98.702 37.3089 97.4446C37.3089 96.1873 37.3089 93.0439 37.3089 88.6432C23.5474 91.7866 20.4893 81.7278 20.4893 81.7278C18.3486 75.7553 14.9847 74.1837 14.9847 74.1837C10.3976 71.0403 15.2905 71.0403 15.2905 71.0403C20.1835 71.3546 22.9358 76.384 22.9358 76.384C27.5229 84.2425 34.5566 82.0421 37.3089 80.7848C37.6147 77.327 39.1437 75.1267 40.367 73.8693C29.3578 72.612 17.737 68.2112 17.737 48.408C17.737 42.7499 19.5719 38.3492 22.9358 34.5771C22.63 33.6341 20.7951 28.2904 23.5474 21.375C23.5474 21.375 27.8287 20.1176 37.3089 26.7187C41.2844 25.4613 45.5657 25.147 49.8471 25.147C54.1284 25.147 58.4098 25.7757 62.3853 26.7187C71.8654 20.1176 76.1468 21.375 76.1468 21.375C78.8991 28.2904 77.0642 33.6341 76.7584 34.8915C79.8165 38.3492 81.9572 43.0642 81.9572 48.7223C81.9572 68.5256 70.3364 72.612 59.3272 73.8693C61.1621 75.441 62.6911 78.5844 62.6911 83.2994C62.6911 90.2149 62.6911 95.5586 62.6911 97.4446C62.6911 98.702 63.6086 100.274 66.055 99.9593C85.9327 93.0439 100 73.8693 100 51.237C99.6942 22.9466 77.37 0 49.8471 0Z" fill="white"/>
</svg>
